<?xml version="1.0" encoding="UTF-8" standalone="no"?>
<svg
   id="a63386c5-60d5-4fe4-9054-1ab1e33f8859"
   data-name="Layer 1"
   viewBox="0 0 66.2 66.5"
   version="1.1"
   sodipodi:docname="uoc_logo.svg"
   inkscape:version="1.2.2 (b0a8486541, 2022-12-01)"
   xmlns:inkscape="http://www.inkscape.org/namespaces/inkscape"
   xmlns:sodipodi="http://sodipodi.sourceforge.net/DTD/sodipodi-0.dtd"
   xmlns="http://www.w3.org/2000/svg"
   xmlns:svg="http://www.w3.org/2000/svg">
  <sodipodi:namedview
     id="namedview12"
     pagecolor="#ffffff"
     bordercolor="#000000"
     borderopacity="0.25"
     inkscape:showpageshadow="2"
     inkscape:pageopacity="0.0"
     inkscape:pagecheckerboard="0"
     inkscape:deskcolor="#d1d1d1"
     showgrid="false"
     inkscape:zoom="8.7936437"
     inkscape:cx="56.745533"
     inkscape:cy="27.917892"
     inkscape:window-width="1920"
     inkscape:window-height="1011"
     inkscape:window-x="0"
     inkscape:window-y="0"
     inkscape:window-maximized="1"
     inkscape:current-layer="a63386c5-60d5-4fe4-9054-1ab1e33f8859" />
  <defs
     id="defs5">
    <clipPath
       id="a2a16e8a-8df8-42c8-ad28-b64d571f94b4">
      <rect
         x="0.16"
         y="0.37"
         width="65.89"
         height="65.77"
         fill="none"
         id="rect2" />
    </clipPath>
  </defs>
  <g
     clip-path="url(#a2a16e8a-8df8-42c8-ad28-b64d571f94b4)"
     id="g9"
     style="fill:#000000">
    <path
       d="M22.39,21.2c-.57-.34-.41-.82-.19-1.2s.08-.33.3-.34.36.26.43.49-.51.71-.45,1.05Zm1.18,4.27c-.39-.13-.83-.28-.68-.74a4,4,0,0,1,.88-1.37,6.66,6.66,0,0,1,1.06-.46c.74,0,.6.07,1,.7a4.09,4.09,0,0,0,.66.44c.12.42.22.53-.16.86l-.77.35-.87.2-1.13,0m1,8.82c-.09,0-.1-.13-.17-.18a4.25,4.25,0,0,1,.93-1.75,1.08,1.08,0,0,1,.48-.08.73.73,0,0,0,.16.14c.26.53-.43,1.46-.83,1.78a.49.49,0,0,1-.57.09M9.09,43.08a.92.92,0,0,1-.56-.93c.11-.24.06-.25.33-.33.37.3.35.71.51,1.11a.32.32,0,0,1-.28.15m1-13.59a2.56,2.56,0,0,1,.49-.28,1,1,0,0,1,.82.11.7.7,0,0,1-.55.37,1.94,1.94,0,0,1-.76-.2M10.8,28c-.26-.15-.92-.75-.92-1.07.46,0,1.2.31,1.11,1l-.19,0m3.14-5.94c-.3-.9.61-1.35,1.23-1.72.49,0-.32,1.05-.41,1.18a5.05,5.05,0,0,1-.82.54m-.92-1c-.29-1.63-.56-3.26-.84-4.88a27.56,27.56,0,0,1,3.28-2.85,23.72,23.72,0,0,1,4.38-2.57H20c-.2.3-.17.68-.77,1s-.69.82-1,1.38c-.27.24-.36.28-.73.57a2.87,2.87,0,0,0-.27.58A2.78,2.78,0,0,1,16,16a3,3,0,0,0-.46,1.45,12.38,12.38,0,0,1-1,1.31c-.13.31-.13.31-.24.63a4.37,4.37,0,0,1,0,.8,1.81,1.81,0,0,1-1.23.89m15.1,5.36a2.9,2.9,0,0,0-1.55-.16c0-.19.85-.65,1-.65.15.16.62.58.62.79l-.11,0M18.85,45a4,4,0,0,1-.8-.18,29.54,29.54,0,0,1-3.41-1.45c-.9-.45-.9-.5-1.76-.9s-2-.82-2.55-1A7.59,7.59,0,0,0,8.11,41c-1.67-.26-3.1.13-3.75-1.64-.13-1.59,2-2.09,3.17-2.23,1.54-.09,2.06.39,3.1.49a12.13,12.13,0,0,0,3.23-.42.84.84,0,0,1,.72.21,4.69,4.69,0,0,1,.33,1,16,16,0,0,0-1.81-.2c-.12.12.08.46.13.58.11.47.26.92.4,1.39A6,6,0,0,0,14.93,42a5.67,5.67,0,0,0,2.36,1.33c.42.26,1.78,1.27,1.6,1.73l0,0m-7.13-8.34c-.8-.23-1.34-.33-1.75-1-.55-1-1.51-3.65-2.58-5.3a24.18,24.18,0,0,1,0-3.15,24.78,24.78,0,0,1,4.16-10c.14,0,.23.47.46,1.35s.19,1.7.37,2.53a1.52,1.52,0,0,0,0,.23,1.26,1.26,0,0,0-.56.82,1.79,1.79,0,0,0,.65.39c0,.1,0,.77,0,1l-.12,0a5.48,5.48,0,0,0-.81-.6,8.67,8.67,0,0,0-1.71-.59c0,.08,0,.56,0,1.56a4.53,4.53,0,0,0,.44,2.46A2.54,2.54,0,0,0,9,26.81c.35.26.3.55.6,1s.77.44.86.68c-.22.09-1.09,1-1.09,1.21a2.94,2.94,0,0,0,1.81.54A4.79,4.79,0,0,0,12.42,35c.59.62,1.39,1.1,1.36,1.25a3.53,3.53,0,0,1-2.06.43m38.7,11.19a1.71,1.71,0,0,1,0-.48.78.78,0,0,1,.35-.06,1.44,1.44,0,0,1-.38.54m-10.54-26c0-.31.35-.75.5-1,.37-.08.94.46,1.21.7v.06a16,16,0,0,0-1.71.25m8.51,7a38.53,38.53,0,0,0-2.68-4.34c-.68-.9-2.18-2.35-2.18-2.48a25.53,25.53,0,0,0,2.84-.3c1.47-.25,2-.4,2.93-.62a12,12,0,0,1,1.22-.38,4.16,4.16,0,0,0-1,1.19,5.62,5.62,0,0,0-.23,1.21,3.05,3.05,0,0,0-1.92-1.32,4.75,4.75,0,0,0,.33,4.26,5,5,0,0,1,.89,1.36c.06.38.12,1.2-.25,1.42m-3.36,2a6.47,6.47,0,0,1-5.17-4.46,18.26,18.26,0,0,1-.43-1.91c0-.38-.06-.75-.08-1.12s.1-.47.16-.71a5.18,5.18,0,0,1,2.88-.46l.18.1a19.32,19.32,0,0,1,2.55,2.87,25.59,25.59,0,0,1,1.22,2.25,5.66,5.66,0,0,0-2.94-.51c.06.13.44,1.39.44,1.44a14.85,14.85,0,0,0,1.32,2.51Zm-2.19-9.38L42,20.86l-1.07-.68c-.09-.28.43-.76.64-1,.63.08.63.08,1.39.22a5.57,5.57,0,0,0,3.31-.82c1.19-1.08,1.19-1.08,1.62-1.43a.25.25,0,0,0,0-.21l-1.34-.44a12.35,12.35,0,0,0-2.85-.11.25.25,0,0,1,0-.08c.95-.79,1.91-.49,3.07-.62a2.09,2.09,0,0,1,1.07-.17,17.75,17.75,0,0,1,2.72,2.76c.33.42.83,1.06,1.14,1.49,0,0,0,0-.05,0A18.65,18.65,0,0,1,47.14,21c-1.46.25-2.83.33-4.3.44M37,23.78a15.19,15.19,0,0,0-3.85-2.7,5.15,5.15,0,0,0-3.06.08c-.56.25-.56.25-.63.25s-.15-.17-.15-.3c.5-.73,1-1.51,1.39-2.29a19.67,19.67,0,0,0,.79-2.39c.08-.85.08-.85.1-1.57a6.12,6.12,0,0,0-2.11-4c-.72-.52-.72-.52-1.79-1.24,0-1.38,3.19-1.06,4-.83,0,.19-.52.55-.76.91a9.19,9.19,0,0,1-.6,1,5.68,5.68,0,0,0,4.53-1.48,2.35,2.35,0,0,1,1,1.87,3.32,3.32,0,0,0-2.39,2.09,8.72,8.72,0,0,0-.45,3c.18.1.46-.06.55-.2a5.92,5.92,0,0,0,1.81-1.82,9.47,9.47,0,0,0,.76-1.84s.81,2.6.95,3.12.48,1.91.61,2.88a5,5,0,0,1-1.25-.53,24.41,24.41,0,0,0-3-.84.55.55,0,0,0,0,.25c.56.21.56.21,1.28.43a16.2,16.2,0,0,1,3.2,1.53c.07.53.18,1.09.3,1.62s.07,1,.13,1.46A9.7,9.7,0,0,1,37,23.76l-.06,0m-8.08-3.17c-.34-.4-.34-.4-.35-.46a16.38,16.38,0,0,1-2.2-1.65c-.32-.48-.2-.62-.06-.72.45,0,.79.22,1-.31a8.69,8.69,0,0,0,0-1,4.83,4.83,0,0,1-.07-1.23,1.12,1.12,0,0,1,.46-.76c.16-.13.35-.09.52-.54a2,2,0,0,0-.38-1.81A8.19,8.19,0,0,0,26.46,11a6.86,6.86,0,0,0-1.27-.67,7.59,7.59,0,0,0-2.27-.47v0a3.85,3.85,0,0,1,1.44-.49A4.67,4.67,0,0,1,26,9.45a12,12,0,0,1,3.89,2.79c.22.14.22.2.54.83a6.52,6.52,0,0,1,.46,3.09c-.08.38-.15.75-.22,1.13A11.65,11.65,0,0,1,29,20.6h-.09M26,12.6a3.84,3.84,0,0,0-3.58-1.15,3.75,3.75,0,0,0-1.17.5c1.16,0,3.61.24,3.43,1.91a2.13,2.13,0,0,1-.39.71c-.93.82-1.38.39-1.84.79-.28.25-.3.55-.5.87s-.56.06-.95.76c-.14.42.09.82-.41,1.12-.36.13-.61-.08-.87.06s-.29.29-.38.55a5.94,5.94,0,0,1-.74,2.09l-.24,0a6.73,6.73,0,0,0-1.3-.47,2.9,2.9,0,0,1-1-.09c-.2-.68.31-1,.7-1.48.06-.13.11-.25.18-.37a4.64,4.64,0,0,0-.06-.91c.12-.67.75-.81,1.21-1.2l.34-.46a2.26,2.26,0,0,1,.22-.78c.81-.57.4-1.24,1-1.93,1.16-.59.72-1,1.07-1.67.6-1.11,3.21-.9,4.21-.53.74.33,2.68,1.46,2.49,2.42-.16.76-1.29-.55-1.45-.78m-1.91,7c-.23,0-.79.05-1-.39-.52-1-1.1-.77-.9-2.21,1-.68.38-1.09,1.22-1.38s.68-.45,1-.66c.45-.34.56-1,1.12-1.06a1.48,1.48,0,0,1,1.37.53c0,.13,0,.52,0,.67a1.61,1.61,0,0,0-1.92-.23,2.27,2.27,0,0,1,1.36.12,2.09,2.09,0,0,1,.6.49A14.55,14.55,0,0,1,27,17.2c0,.16,0,.25-.13.33s-.38,0-.48,0c-.47-.08-.54.09-.58.73-.26-.11-.44-.28-.6.08,0,.08.14.27.13.38a2,2,0,0,0-.52-.05c-.52.25-.06.86-.7,1M39,21.29c-.12-.53-.23-1.08-.36-1.61.14-.14.91.47,1.08.56A2.34,2.34,0,0,1,39,21.29m.36-2c-.29-.21-.74-.3-.94-.58-.73-2.9-1.58-5.76-2.28-8.65a.09.09,0,0,1,.07,0,3.93,3.93,0,0,0,1.16.48,15.37,15.37,0,0,0,2.11,0c0-.06-.32-.36-.36-.56a7.27,7.27,0,0,1,1.14.45c.17.19-.37,1-.52,1.27a2.13,2.13,0,0,1-.6-.22,4,4,0,0,0-.86-.29c-.16,2.69,0,5.56,1.93,7.65-.08.29-.57.5-.85.53M25.89,31.08a1.78,1.78,0,0,1-1.64-1.47,2.62,2.62,0,0,1,3.55-2.39,3.09,3.09,0,0,1,1.48,1.72c.27.84,0,1.65-.71,1.24-.62-.69-1.11-1.32-2.13-1.13a.56.56,0,0,0-.32.77c.1.26.43.35.66.43.84.41-.66.74-.89.83M27,33.56A4.94,4.94,0,0,1,27.69,32s.9-1.3,1.45-1.18a.39.39,0,0,1,.26.17.35.35,0,0,1,0,.29c0,.17-.4.3-.51.63-.19,1.29-.69,1.3-2,1.7m1.6,4c-1.29-.23-2.55-.58-3.82-.86s-2.25-.28-3.39-.34a1.54,1.54,0,0,1,.66-.55c1.92-.65,3.68-.43,6-1.06a3.42,3.42,0,0,0,1.46-1.4c.16-.42.58-.81.84-.46s-.11.84-.32,1.25-.12.54.18.39c.93-.84,1.23-2.19,2.17-3,.12-.06.19-.18.4-.1a.48.48,0,0,1,.11.15,2.19,2.19,0,0,1-.16.76A12,12,0,0,1,32,33.41c-.24.37-.48.7-.39,1,.24.33.72-.08,1-.45s1.06-1.76,1.31-2.22c.09-.14.61-.67.65-.71a.76.76,0,0,1,.24-.15,4.17,4.17,0,0,1,1.24-.51c.81-.21,1-.21,2.56-.6a.58.58,0,0,1,.32,0,2.42,2.42,0,0,1,.66,2,.78.78,0,0,1-.26.45,12.83,12.83,0,0,0-2,2,3.81,3.81,0,0,0-.38.65c-.22.57,0,1.11.71.7a3,3,0,0,0,.67-.65,3.69,3.69,0,0,0,.37-.53c.28-.46.51-1.39.86-1.42a1.53,1.53,0,0,1,0,1.17,2.6,2.6,0,0,1-.4.74c-.2.22-.47.33-.7.69a.83.83,0,0,0-.2.55c0,.56.51.59.64,1.33-.11,0-.13,0-.35-.15a2,2,0,0,0-1.11-.62,28.08,28.08,0,0,0-4.9.43,10.89,10.89,0,0,1-2.1.35c-.86.06-.86.06-1.84.08M34.24,44c-.23-.43-.44-.86-.67-1.29,0-.2-.48-.78-.6-1a3.19,3.19,0,0,1-.59-1c.94-1.69,2.37-.59,3.79-.17.31.12.35.16.39.51l-.63,1.34c-.07.08-.28.43-.35.45-.12.35-.83.85-1.16,1l-.18,0m-7.7,2.69a7.25,7.25,0,0,0-1.06,0,19.35,19.35,0,0,1-2.81-.54c-.41-.15-.81-.29-1.22-.46a5.2,5.2,0,0,1-1.58-1.09,5.79,5.79,0,0,1-.61-.66l-1.4-2c-.19-.26-.37-.51-.55-.78a6.11,6.11,0,0,1-.58-1.26,13,13,0,0,1-1.26-5.69,20.43,20.43,0,0,0-.13-3.75c-.26-1.14-.36-2.29-.55-3.44,0-1.36,0-2.72.07-4.07a1.59,1.59,0,0,1,.25-.85,1.74,1.74,0,0,1,1-.85c.59-.16,1.64.6.94,2-.24.47-1.71,2.27-1.24,3.22.29,0,.5-.65.88-1.19.72-1,1.79-1.85,2.4-2.86A3.86,3.86,0,0,1,20.17,21a.83.83,0,0,1,.53-.13,2.06,2.06,0,0,1,1.35.61c.27.34.35.69.79.48.27,0,.36,0,.43.3-.33.48-.9.08-1.33,0-.46-.25-1.48-.75-2-.27-.31.56-.57,1.14-.93,1.67.05.43,1-.32,1.12-.4a.78.78,0,0,1,1.1.75,8.86,8.86,0,0,0-.77,1.54c-.88.37-1.75-.19-2.61.24-.52.78-.11,1.91.07,2.75.1,1.3.05,2.62.19,3.92,0,.62,0,1.24,0,1.85a13.72,13.72,0,0,0,.57,1.89,3.53,3.53,0,0,1-.14.92,18.09,18.09,0,0,0,.68,2.58c.16.83-.07,1.92.62,2.48.49.23.86.36,1.08.85.08.3.22,1.24.57,1.36v.05a1.46,1.46,0,0,0,1.21.1c.64-.27.84-.39,1.72-.77a2.89,2.89,0,0,1,.7-.06,13.48,13.48,0,0,0,.83,2.49l.12,0a.87.87,0,0,0,.11-.38A6.36,6.36,0,0,1,25.89,44a5,5,0,0,0,2.77-.13l1.17,0,.86.22c.54.2,1.34.63,1.79,0a1.42,1.42,0,0,1,0-.2c-.31-.77-1.68-.93-2.42-.93a24.88,24.88,0,0,0-2.71.51,2.47,2.47,0,0,1-1.55-.47c-.21-.34-.52-1.27-1-1.34a1.31,1.31,0,0,0,0,.52c0,.46,0,.6-.47.78s-.56.1-.84.16c-.81.39-1.63.93-2.11-.12l-.21-.76c-.39-.78-1.06-1.14-1.33-2A3.26,3.26,0,0,1,20,38.8c.55-.76,2.07-.75,2.88-.7.31.06.89.08,1.94.21l0,.06.06,0v0c2,.41,2,.41,2.65.58,0,0,.62.24,1.53.61s1,.51,1.21.59l.9.65a9.2,9.2,0,0,1,1.16,1.39h0c.14.28.43.53.59.83H33l.35.66h.06a2.26,2.26,0,0,1,.31.76,6.7,6.7,0,0,1-1.67,1c-1,.38-1,.38-2.32.81a20.52,20.52,0,0,1-3.21.46m-4.49,9.14q-.81-.42-1.59-.87a31.35,31.35,0,0,1-3.25-2.07c-.52-.39-1-.79-1.52-1.15-.07-.09-.27-.22-.41-.37a26,26,0,0,1-1.92-1.91c0-.06-.08-.08-.65-.79s-1.06-1.43-1.57-2.2c-.16-.25-.29-.5-.44-.73-.3-.45-.69-1.5-.18-1.27.11.05.2.27.25.39a3.74,3.74,0,0,0,.92,1.61,3.64,3.64,0,0,0,1,.5,23.33,23.33,0,0,1,1.48,2,5.24,5.24,0,0,0,1.36.84,7.23,7.23,0,0,1,1.2,1.73,5.68,5.68,0,0,0,2.1,1.16c.77.37,1,1.16,1.9,1.69s2.61.83,3,2.13a7.84,7.84,0,0,1-1.63-.73M25.44,57a7.44,7.44,0,0,1-1.62-1.51,2.17,2.17,0,0,0-1-.73A8.7,8.7,0,0,1,21.15,54c-.33-.29-.48-.72-1-1.24-.86-.8-2.82-.65-3.11-2a5.87,5.87,0,0,0-1.24-1.65c-.9-.55-1.51-.79-1.95-1.82a6.51,6.51,0,0,0-.61-.65c-.55-.4-1.31-.65-1.67-1.17a4.09,4.09,0,0,1-.77-1.8c0-.12.1-.06.15,0,.36.4.59.89,1,1.26a4.36,4.36,0,0,0,1.46.79,1.18,1.18,0,0,1,.75.5,6.49,6.49,0,0,0,.93,1.7c.43.49,1.07.33,1.61.58.93.45.76,2,1.75,2.65.67.28.81.18,1.46.41a2,2,0,0,1,1.1.66,7.14,7.14,0,0,1,.57.94,5.26,5.26,0,0,0,2,1.2,3.06,3.06,0,0,1,1.29,1.19c.55.87.69,1.26.8,1.4l-.18,0m1.57.43a1.41,1.41,0,0,1-.45-.21,3,3,0,0,1-.65-.7c-.31-.43-.36-.69-.9-1.6a6.31,6.31,0,0,0-1.09-1.22,3.39,3.39,0,0,0-.72-.46,5.57,5.57,0,0,1-1-.43,5.89,5.89,0,0,1-1.42-1.54c-.06,0-.12-.1-.31-.25-.83-.46-1.79-.38-2.31-1.24-.28-.51-.66-1.48-1.19-1.8a9.8,9.8,0,0,1-1.23-.46,4.41,4.41,0,0,1-.95-1.49,1.45,1.45,0,0,0-.84-.76c-.27-.11-2.63-1-1.81-1.82a.67.67,0,0,1,.24-.12,1.08,1.08,0,0,1,.36,0,14,14,0,0,1,5,3c.16.14.28.28.46.42A31.09,31.09,0,0,1,20.51,49a27,27,0,0,1,6.18,7.66c0,.08.44.8.32.86M20.15,32.89A8.43,8.43,0,0,1,19,31.24a5.18,5.18,0,0,1,.21-2.76h.08c.21.49.43,1,.6,1.5a8.77,8.77,0,0,0,.38,1.67,6.43,6.43,0,0,1,0,1.24Zm25.72,6c-.12-.17-.59-1.08-1.32-2.34-1.55-2.65-3.43-5.05-4.9-7.75-.07-.09-.13-.22,0-.3.36.07.88.62,1.18.86s.33.32,1,.9a25.27,25.27,0,0,1,2,2.61c.82,1.4,2.08,1.67,3.1,2.21a5.83,5.83,0,0,1-.33,2.58,3.08,3.08,0,0,1-.72,1.23M41,33.38c-.35-.13-.8,0-1-.3a1.85,1.85,0,0,1,.32-1.23c.33,0,1.32,1.27.67,1.53m.15.7a.26.26,0,0,1,0-.08,1,1,0,0,1,.66-.31c.15.15.15.15.16.21a2.77,2.77,0,0,1-.79.18m0,4.29a.26.26,0,0,1-.3-.2c0-.65,1.36-2.18,2.14-2,.52.61-.59.85-.87,1.28a7.07,7.07,0,0,0-.65.78.9.9,0,0,1-.32.13m-1.43-.58c-.48-.29.32-1.66.43-1.94.36-.5,1.51-1.76,2.19-1.07,0,.07-.48.4-.86.8a11,11,0,0,0-.87,1.1c-.37.55-.69,1.11-.89,1.11m-2.16,1.93c0-.47-.14-1.23.33-1.54l.29,0c.59.23-.08,1.3-.34,1.53a1.27,1.27,0,0,0-.28,0m4.4-.83v-.14a1.65,1.65,0,0,1,1.44-1c0,.07,0,.07,0,.16a4.08,4.08,0,0,0-1.16,1c-.08.08-.19,0-.27,0m4.72,5.42c-1-.24-1.83-1.78-2.44-2.81-.32-.35-.69-.77-1.06-1.15s-.38-.42-.08-.89a2.17,2.17,0,0,1,1.1-.57c.15,0,.18.12.12.27-.4.19-.66.25-.6.73.28.3.75-.53,1.52.11.78.93,1.19,1.92,1.89,2s1-.55,1.87-.94c.22-.18.74-.41,1.18-.72.2-.14.36-.41.52-.49s.25.24.32.26c0,.57-1.61,1.77-2.2,2.41-.69,1.06-1.13,2-2.14,1.77M44,47a20.19,20.19,0,0,0-1.89-2.83c-1.29-1.41-2-1.84-2.87-2.82a4.73,4.73,0,0,0,0-.91c-.26-.81.22-1.58.77-1.43,2.44,1.32,3.9,3.34,5.45,5.29a4.86,4.86,0,0,0,2.46,1.49,7,7,0,0,0,1.88.25c.7-.11,1.36-.58,2-.32a.54.54,0,0,0,0,.1,8,8,0,0,1-2.7,1.29c-1.08.2-2.69,0-3.86.33A1,1,0,0,1,44,47m1.29,7c-.17-1.72-.56-3.4-.8-5.11a6.38,6.38,0,0,0-.12-.63,31.28,31.28,0,0,1,4.44-.36,11.12,11.12,0,0,0,.81,2.69,19.06,19.06,0,0,1-2.1,1.88A17.62,17.62,0,0,1,45.3,54m-6.59-4.6a1.46,1.46,0,0,1-.12-.54,18.91,18.91,0,0,0,3.95-2.61s.11-.11.13-.11a2.55,2.55,0,0,1,.23.43,12.72,12.72,0,0,1-4,2.81l-.15,0m-2.66.76a2.41,2.41,0,0,1-.12-.48c.33-.07.68-.13,1-.23l1-.29a1.33,1.33,0,0,1,.09.52,11.69,11.69,0,0,1-2,.48M40,56.55A42.59,42.59,0,0,0,38.86,50l0-.06a13.91,13.91,0,0,0,4.31-2.71l.06-.05.07.13A24.45,24.45,0,0,1,45,54.22a13.64,13.64,0,0,1-2.13,1.18A18.55,18.55,0,0,1,40,56.55m-2.38.7c-.53-2.12-.87-4.24-1.38-6.38.05-.15.54-.18.69-.22l1.26-.38c.53,1.77.89,3.65,1.35,5.43a2.77,2.77,0,0,1,.12,1,20.51,20.51,0,0,1-2,.58m-7.34.62a31.09,31.09,0,0,0-4.91-8.06l-.06-.17c.53.13.57.22,1.54.53a27.06,27.06,0,0,0,4.32.89,17.42,17.42,0,0,0,2.32.06c.86,0,1.67-.14,2-.14.07.2.07.2.5,1.93.14.49.29,1,.44,1.46.24,1,.52,2,.66,3a23.3,23.3,0,0,1-6.79.52m-.5,0a7.06,7.06,0,0,1-2-.33,49.53,49.53,0,0,0-3.22-5.32,42.6,42.6,0,0,0-3.63-4,13.2,13.2,0,0,1-1.86-1.88,12.43,12.43,0,0,1,2.1.84A13.58,13.58,0,0,1,25,50.64a22.31,22.31,0,0,1,4.1,5.77,11,11,0,0,1,.7,1.47l-.07,0m.15-7.5a20.63,20.63,0,0,1-5.48-1.7c-.11-.1-.64-.48-.58-.71l.1,0c.22.06,1.28.5,2.64,1,.22,0,.39.16,1.19.4a12.41,12.41,0,0,0,1.9.44,17,17,0,0,0,3.81.14c1.33-.1,1.53-.14,1.7-.14a3.23,3.23,0,0,1,.14.63,20.63,20.63,0,0,1-2.27.19,18.88,18.88,0,0,1-3.15-.2m2.1-1.1a13.47,13.47,0,0,1-2.25-.2A14.54,14.54,0,0,1,27,48.46c-.77-.24-1.48-.51-2.22-.76-.43-.21-.43-.21-.5-.29.64-.06,1.31-.06,2-.06l2.08-.19,2-.49a15.09,15.09,0,0,0,3.09-1.33c1.61-1,1.91-1.24,2-1.26v0l.57-.38v0H36v-.06a4.25,4.25,0,0,1,.73-.57v0c.36-.28.36-.28.43-.3v-.06c.2-.15.43-.47.65-.57v-.05h.06s0,0,0-.06c.78,0,3.61,2.41,3.61,2.86.23,0,.72.66.68.82l-.19.2a9.7,9.7,0,0,0-.85.68A19.93,19.93,0,0,1,38.47,48l-.15,0a7,7,0,0,0-.74-1.94h-.09c0,.09,0,.09,0,.42.13.63.19,1.27.29,1.89a8.52,8.52,0,0,1-2,.55c-.44-1.47-.44-1.47-.6-1.9-.1-.13-.17-.13-.27-.09,0,.29,0-.05.09.83.07.44.14.87.22,1.32a16.39,16.39,0,0,1-3.12.24M19.85,35.63c-.09-.05-.17-.12-.15-.22l.65-.56c.41-.43.82-1.16,1.46-.81.16.2.46.55.43.81-.33.16-.67,0-1-.05-.59.16-.82.72-1.38.83m3.07-1.85a6,6,0,0,1-2-2.09,12.1,12.1,0,0,1-.43-1.32,9.46,9.46,0,0,1-.11-2.6.64.64,0,0,1,.39-.4,2.37,2.37,0,0,0,2.05-.76c.4,0,.8.1,1.2.11a11.26,11.26,0,0,1,1.24,0q-.24.2-.48.42a3,3,0,0,0-.52,3.7c.84.85.72.89,0,1.89-.14,0-.2-.13-.28-.22a22.28,22.28,0,0,1-1.58-3.57,1.85,1.85,0,0,0-.16-.56c-.08,0-.12,0-.19,0a15.73,15.73,0,0,0,.88,3.72c0,.58.06,1.12.05,1.7ZM36,29.17a.08.08,0,0,1-.06,0c0-.13.1-.18.2-.44A5.92,5.92,0,0,0,35,26.1a15.24,15.24,0,0,0-3.32-3.9L31,21.69v-.05c.71-.35,1.73.09,2.4.31a16.17,16.17,0,0,1,4.11,4.18,15.65,15.65,0,0,1,1.64,2.4,17.13,17.13,0,0,1-3.09.64m3-2.52a6.07,6.07,0,0,1-.89-1.35,2.08,2.08,0,0,1,.54-1.11,18.76,18.76,0,0,0,.39,2.44l0,0m15.88.68a6.54,6.54,0,0,0-1.79-.45,10.48,10.48,0,0,0-1.34.05,5.43,5.43,0,0,0,1.83-2.21,6.81,6.81,0,0,0,.22-.89,17.42,17.42,0,0,1,1.24,3.5Zm-3.82-3a.59.59,0,0,1,.06-.16A3,3,0,0,0,52,21.56a4.06,4.06,0,0,1,0-1.51s.1.14.15.19a24.71,24.71,0,0,1,1.58,2.94c0,.29-.82.42-1.58.66a7.51,7.51,0,0,0-1,.49M45.16,11.91c0-.22.15-.49.37-1.28.06-.33.11-.66.18-1h0c0,.07,0,.07.43.64a2.06,2.06,0,0,1-1,1.64m6.56,33.34a.41.41,0,0,1-.17-.15c-.27-.63.61-1.17,1-1.45a3.74,3.74,0,0,0,1.31-1.09c.13-.29,1-2.3,1.52-2,0,.26-.35.56-.51.76-.39.62-.59,1.32-1,1.91-.15.14-.94.67-1.1.83a5.34,5.34,0,0,1-.75,1.1l-.33,0m-2.11-.55c0-.17,0-.33,0-.49.31-2.2,2.39-4.1,4.12-5.28.48-.32,2-.91,2.14-.58s-1.43.37-2.44,1.18a13.68,13.68,0,0,0-2.95,3,4.1,4.1,0,0,1-.32.75c-.1.37-.22,1.19-.53,1.39m.89.2a.27.27,0,0,0-.16-.06,5.22,5.22,0,0,1,1.34-3.1c.72-.72,2.6-2.82,3.91-2.33a.31.31,0,0,1-.06.21,3,3,0,0,0-.59.12,3.94,3.94,0,0,0-1.34,1.44,3.39,3.39,0,0,1-1.78,2.15c0,.05,0,.05-.36.34-.29.5-.36,1-1,1.23m.66-5.34c-.32-.25-.49-.43-1,0-.33.3-.82.56-1.27.91a2.53,2.53,0,0,1-1.1.57.79.79,0,0,1-.69-.15c-.92-.65,0-2,.43-2.84.22-.61.22-.61.43-1.09.2-.33.33-1,.9-1.08a3.73,3.73,0,0,1,1.39.14,3.39,3.39,0,0,1,.73.52.68.68,0,0,0-.14-.57,3,3,0,0,0-2.17-.73c-.12-.17.1-.43.19-.57,2,.39,3.93,1.07,6.73-1.11-1.72-1.41-3.48-2.18-5.59-1.3-.41.25-.56.38-.75.49a3,3,0,0,1,.7-1.93c2.2-.06,4.14-.63,5.36-2.55A13.28,13.28,0,0,1,56,31.63a25.78,25.78,0,0,1,.18,2.87,3.89,3.89,0,0,1,0,.6c-.27,2-1.62,2.73-3.08,3.75-.16.12-.66.48-1,.81-.93.8-.16.44-.84-.1m-.41,10a5,5,0,0,1-.24-.75A15.19,15.19,0,0,0,52.36,46c0-.11,0-.23,0-.33.46-.37.44-.83,1-1.34s.77-.49,1-.76.46-.71.73-1.07c.13,0,0,.23,0,.31a14.36,14.36,0,0,1-.79,1.75,22.58,22.58,0,0,1-1.32,2.28,15.78,15.78,0,0,1-2.09,2.77M17.87,20.15a.26.26,0,0,1,0-.23,1.53,1.53,0,0,0,.58-1.25c.07-.07.14-.05.23-.05a1.13,1.13,0,0,1-.41,1.49,2.46,2.46,0,0,0-.37,0m1.41-2.44-.18-.1v-.19a2.13,2.13,0,0,0,.94-1c.53,0,.15.81,0,1a1.18,1.18,0,0,1-.77.24m-1.38-.29-.15-.08,0-.13a6.06,6.06,0,0,1,.94-.61,2.83,2.83,0,0,0,.74-1.27c.16-.15.26-.13.36.08a1.81,1.81,0,0,1-1.86,2m3.9-2.19c-.19-.1-.16-.12-.36-.21a1.61,1.61,0,0,0-.63,0c-.1,0-.17,0,.05-.2s1.05-.35,1.36.12c.1.33-.1.42-.42.34m1-.61c-.55-.09-.56-.17-.51-.34.45-.27,1.21.16,1.21-.66,0-.56-2.34-.68-1.56-.8.48-.08,2.14-.15,2.38.71.09,1-.71,1.13-1.52,1.09M17,20a.45.45,0,0,1,0-.23,1.75,1.75,0,0,0,.57-1.45.13.13,0,0,1,0-.07h.1a1.1,1.1,0,0,1-.4,1.7L17,20m4.09,25.15a3.78,3.78,0,0,1-1.21-1.06,9.35,9.35,0,0,1-.8-1.13c-.06-.18-.37-.59-.08-.54l.1.06a7,7,0,0,0,1.16.93,14.79,14.79,0,0,1,.94,1.52c0,.18,0,.21-.11.22m-3-3.85A10.13,10.13,0,0,1,16.48,38a30,30,0,0,1-.63-3.53c0-.61,0-1,.75-1,.76.38.61,1.4.63,2.13a5.48,5.48,0,0,1,.08,1.08,21.27,21.27,0,0,0,1.06,4.44c0,.08,0,.18,0,.23s-.2,0-.24-.06M35.3,34.76c-.48-.22.65-1.48,1-2a5.44,5.44,0,0,1,1.46-2c1.14,0,0,1.79-.38,2.21-.56.52-1,1.08-1.57,1.63-.23.16-.34.19-.5.16m-1.44-.49c-.46-.14-.15-.54,0-.84a11.32,11.32,0,0,0,.7-1.76A1,1,0,0,1,35,31.2a2.36,2.36,0,0,1,1-.14c.65.11.06.94-.56,1.73-.42.53-.81,1.06-1,1.28a.69.69,0,0,1-.62.2M26.42,16.13a1,1,0,0,0-.35-.38c0,.19-.07.46-.44.37-.2-.08-.19-.3-.1-.48s-.18-.09-.32-.1-.48,0-.64-.06a2,2,0,0,1,1.62,0,.74.74,0,0,1,.4.51c0,.1-.14.19-.17.1m-5.37-2.69c.24-.1.55-.09.52.17s-.48.31-.57.33c-.48.07-1,.72-1,.68a2.13,2.13,0,0,1,1-1.18M51.6,7.56a32.43,32.43,0,0,0-5.25-3.09,3.1,3.1,0,0,1,1.49,1.75,5.33,5.33,0,0,1-.08,2.14,3.93,3.93,0,0,1,3.84-.8M56,55.12a31.55,31.55,0,0,0,8.45-26.47,6.52,6.52,0,0,1-.21-1.3,31.65,31.65,0,0,0-8.76-16.5q-.84-.84-1.74-1.62l-.14,0c-.84.42-1.72,1.23-2.39,1.51a6.32,6.32,0,0,1-2.23.44,4.45,4.45,0,0,0-2.2.2c-.16.15-.66.45-.66.69A10,10,0,0,1,50,12s.18-.09.2-.07a4.49,4.49,0,0,1-1.73,3,11.67,11.67,0,0,0,.91.94A26.69,26.69,0,0,1,56.74,36.5a27.93,27.93,0,0,1-.54,3.87,19,19,0,0,1-1.06,3.24A25.86,25.86,0,0,1,53.37,47a22.24,22.24,0,0,1-2.32,3.25A18.2,18.2,0,0,0,56,55.12m-.47.49.3-.31-.8-.59c-2.3-1.83-4.8-3.93-5-7.11-.08-.08-.34,0-.41.09.16,3.39,3.32,6.15,5.91,7.92M30.37,64.85c.89.07,1.78.11,2.68.11a31.59,31.59,0,0,0,22.07-9,21,21,0,0,1-5.18-4.84c-.33.24-1.22,1.11-2.06,1.77C42.11,57.45,35.59,59,28.23,58.34c.07.26.17.49.28.79.67,1.86,1.31,3.83,1.86,5.72M4.19,46.39a32.09,32.09,0,0,0,6.45,9.27,31.68,31.68,0,0,0,19.27,9.15A55.73,55.73,0,0,0,28,59.31a5.08,5.08,0,0,0-.52-1,24.65,24.65,0,0,1-3.81-1.26,30.91,30.91,0,0,1-8.83-5.35c-.47-.46-.93-.93-1.37-1.43a1.56,1.56,0,0,1-.4-.45,4.49,4.49,0,0,1-.86-1c-.06,0-.23-.3-1.11-1.37-.07-.12-.33-.45-.8-1.12s-.78-1.32-1.14-2a2.59,2.59,0,0,0-.52-.81A1.11,1.11,0,0,0,7.51,43c-.45.05-.53.27-.79.43a5.44,5.44,0,0,1-2.37,1.39,1.4,1.4,0,0,0-.16,1.53M6.13,16.51A31.42,31.42,0,0,0,1.34,32.89a10.24,10.24,0,0,1,3,.93c0,.08,0,.08.54.49a12.63,12.63,0,0,1,1.34,1.92l.26.13A.46.46,0,0,0,6.8,36c0-.12,0-.24,0-.37a38.74,38.74,0,0,1,.16-8.94,26.27,26.27,0,0,1,3.86-9.5c-1.12.41-2.53.94-3.78.14a1.47,1.47,0,0,1,.4-.72c-.32,0-.85-.1-1.29-.1m3-4.08c-.48.55-.95,1.12-1.39,1.7a8.83,8.83,0,0,1,1.38-.23c0-.07-.06-.2-.09-.8a2,2,0,0,1,.1-.67m2-2.11-.54.53-.15.15a4.37,4.37,0,0,1,.56,1.85,6.17,6.17,0,0,1-.43,2,3.4,3.4,0,0,1-.23.4h.21c.23,0,.85.06,1.09.06a2,2,0,0,1-.41-1.48c.07-.48.14-.38.39-.78a9.15,9.15,0,0,1-.51-2.63.36.36,0,0,1,0-.1M15,7.2c-.7.49-1.38,1-2,1.54a4.31,4.31,0,0,1,.83,3.48c-.15,1.13-.54,1.46-.54,2.21l.06,0a10.15,10.15,0,0,0,1.47-1.6l.57-1.09a2.8,2.8,0,0,1,1.55-2.22,4.44,4.44,0,0,0,.66-.78s.49-.43.49-.51a12.53,12.53,0,0,1-2.34-.67,3.33,3.33,0,0,0-.46-.24L15,7.2m18-5.66A31.48,31.48,0,0,0,17.34,5.72a6,6,0,0,1,1.3.12,13.26,13.26,0,0,1,3.24,1.53,4.1,4.1,0,0,0,1.59.14,3.62,3.62,0,0,1-1.72-1A3.67,3.67,0,0,1,21,4.69a5.15,5.15,0,0,1,1.75.25A3.33,3.33,0,0,1,24.6,7c.18,0,.57-.07.63-.27a5.11,5.11,0,0,1-1.51-2.5c0-.18,0-.18,0-.23a5.7,5.7,0,0,1,1.51.3,6.13,6.13,0,0,1,3.59,3l.41.4a10,10,0,0,0,1,0,8.83,8.83,0,0,1-2.35-2.37c-.15-.25-.44-.74-.66-1.17a3.34,3.34,0,0,1-.3-.64,6.51,6.51,0,0,1,3.93,1.67,14.06,14.06,0,0,1,1,1,6.76,6.76,0,0,0-1.39-2.94c0-.06.12,0,.19,0,2.57-.57,4.18,2.48,4,4.63,0,0,0,0,2.19.47a21.18,21.18,0,0,1,6.41,2.83l.07,0a9,9,0,0,1-.68-1.69,8.9,8.9,0,0,1,.14-3.81c.14-.69.08-.7.06-.69.55-.06,1.48.82,2,1.62l.12.17A6.78,6.78,0,0,1,45,4.58a.38.38,0,0,1,0-.1c.11-.51.16-.43.17-.49h0A29.55,29.55,0,0,0,40.78,2.5l-1.06-.25a31.19,31.19,0,0,0-6.67-.71m1.19,6.31c-.3-.41-.71-.95-1-1.47s-.63-1.25-.95-1.74A14.46,14.46,0,0,1,33.4,6.26a17.56,17.56,0,0,1,.84,1.59h0A6.45,6.45,0,0,0,32.7,4.68c-.26-.23-.79-.74-1.15-.74.78,1.38,1,3.21,2.61,3.91Zm.08,1a13.13,13.13,0,0,0-1.25.42c-.61.25-.8.54-1.36.73C32.26,9.7,32.4,9.3,33,9a5,5,0,0,1,1.33-.26h0c-1.52-.64-3,1-3.08,1.46.33-.12.74,0,1.25-.17a4.85,4.85,0,0,0,1.79-1.23m4.48,1.34c-.33-.11-.73-.21-1.09-.33s-.9-.43-1.3-.59c.44.12.91.25,1.39.41a5.21,5.21,0,0,1,1,.47A4,4,0,0,0,36,8.93a1.88,1.88,0,0,0,1.37,1.12,6.58,6.58,0,0,0,1.46.11m-3.17,1.66a9.81,9.81,0,0,0-.74,1c-.36.59-1,2.14-1.31,2.45.27-.36.71-2.06,1.18-2.7a4,4,0,0,1,.88-.78h0a2.73,2.73,0,0,0-1.83,1.64,15.63,15.63,0,0,0-.54,2.43,11.59,11.59,0,0,0,2.16-3.38c.07-.22.13-.43.19-.64m9,.14c-.11-.66-.39-2-.48-2.34a27.72,27.72,0,0,1-.51-3.11c.07.45.68,2.24.82,3,.06.36.19,1.71.22,2.4a8.29,8.29,0,0,0-.36-4.81A3.84,3.84,0,0,0,43.2,5.54c0,2.23-.09,4.54,1.37,6.43h0m2-2.27c0-.58,0-1.5-.13-2.2a19.38,19.38,0,0,0-.69-2.32,4.71,4.71,0,0,1,1,2.11,13.14,13.14,0,0,1-.09,2.31,4.12,4.12,0,0,0,.44-2.09,3.23,3.23,0,0,0-.55-1.83,3,3,0,0,0-1-.93,14.45,14.45,0,0,0,1.06,4.95m5.62-.87c-.35.12-2.34.56-3.2.93a9.16,9.16,0,0,0-1.62.94,15.68,15.68,0,0,0,3.31-.58c1-.37,1.48-1,2.3-1.23v0a3.9,3.9,0,0,0-2.15-.52,4,4,0,0,0-3.72,2.4h0a8.56,8.56,0,0,1,2.22-1.56,13.73,13.73,0,0,1,2.81-.33m-3.27,4c-.35.12-1.7,1.11-2.56,1.48s-1.81.54-2.38.8a7.63,7.63,0,0,0,2.3-.14,4.18,4.18,0,0,0,3.3-2.53,4.24,4.24,0,0,0-1.47-.06c-1.67.22-3.61,1-4.25,2.72h0a11.12,11.12,0,0,1,2.74-1.36,19.39,19.39,0,0,1,2.28-.91m-9.6.38c.18.32.32,2,.73,2.82s1.14,1.62,1.39,2.2v.05s-.07-.12-.1-.11c-2.56-1.39-2.29-4-2.41-6.13.27.07.74.77.87,1a9.77,9.77,0,0,1,1.64,5,15.46,15.46,0,0,0-1.22-2.6c-.34-.68-.64-1.87-.9-2.19m8.33,18a8.05,8.05,0,0,0-1.1-1.69c-.59-.55-1.46-.88-1.8-1.28.1.46,1.26,1.43,1.75,1.89s.84.94,1.18,1.28v0H47.6A7.93,7.93,0,0,1,44.78,29a6.1,6.1,0,0,1-.68-1.54,15.79,15.79,0,0,1,1.72.76,4.22,4.22,0,0,1,1.83,2.94m6.51-3c-.3.1-1.55.19-2.32.35a5.41,5.41,0,0,0-2.42,1.59c-.12-1,1.11-1.88,2.11-2.23a5.48,5.48,0,0,1,2.55-.09c.08,0,.54,0,.62,0a4.49,4.49,0,0,1-2.45,1.91A7.81,7.81,0,0,1,50,30c.6-.27,1.43-.86,1.88-1a22.09,22.09,0,0,0,2.28-.84m-.1,5.29a10.73,10.73,0,0,0-1.89.17c-1,.21-1.69.39-2.18.43,1.38.35,3.75.22,4.81-.55a5.83,5.83,0,0,0-3.64-.72c-.75.25-1.61.8-1.53,1.16l.06,0A7.6,7.6,0,0,1,52,33.25a9.29,9.29,0,0,1,2.11.23m-40.82-5c-.24-.47-.73-1.34-1.05-1.89a7.07,7.07,0,0,1-.91-2.43c.41.23.86,1.43,1.15,2a23.12,23.12,0,0,1,.85,2.25c.31-1.54-.62-5-2.52-5-.49,2,.84,4.07,2.45,5.08h0m.95,3.91a9.75,9.75,0,0,0-.61-1,6.24,6.24,0,0,1-1-1.57,4.13,4.13,0,0,1,1.17,1.24,5.93,5.93,0,0,1,.47,1.25c.33-1-.92-3-2-3a2.8,2.8,0,0,0,1,2.32,5.05,5.05,0,0,0,1,.8s0,0,0,0m-2.28-.79c.08.23.64,1.11.91,1.65.39.8.66,1.09.75,1.39a5.61,5.61,0,0,0-1.79-3.45h0a3.86,3.86,0,0,0,1.69,3.52l.06,0a5,5,0,0,1-1-1.46,14.89,14.89,0,0,1-.57-1.63m-4.4.7c0,.24.58,1.22.72,1.82.21.93.55,1.66.57,2.07a4.54,4.54,0,0,0-.11-2,12.43,12.43,0,0,0-1.48-2.88.21.21,0,0,0,0,.06,14.35,14.35,0,0,0,.25,3.23,7,7,0,0,0,1,1.66c.16,0,.16,0,.19.09l.15-.06a8.58,8.58,0,0,1-1-2.21c-.07-.49-.28-1.46-.27-1.73m-5.15,2c.15.19,1.15.72,1.58,1.15a2.5,2.5,0,0,1,.83,1.18c.35-.4,0-1.37-1.77-2.47a4.16,4.16,0,0,0-1.18-.47,9.46,9.46,0,0,0,.45,1.46c.85,1.59,2,1.91,2.46,1.53a4.67,4.67,0,0,1-1.2-1.06,14.49,14.49,0,0,1-1.17-1.32m1.47,3.82c-.28-.16-.73-.43-.92-.56-.47-.31-.84-.84-1-.89a2.91,2.91,0,0,0,.81,1.12,6.75,6.75,0,0,0,1.14.39h0c-1.26.85-2.33-1-2.33-2.1.66.12,1,.76,1.61,1.11.18.14.79.47.73.92m-.11,1.83-.23.3A10,10,0,0,0,2.88,42c.34-.14.71-1.58.86-2.08a.63.63,0,0,1,.12.33,2.54,2.54,0,0,1-1.11,2.1,3.35,3.35,0,0,1-.12-1.44c.12-.6.53-1.14,1-1l.05,0m2.69,1.77c-.07,0-.18.09-.31.18A5.32,5.32,0,0,0,5,42.61a5.64,5.64,0,0,0-.82,1.47c.18,0,.5-.59.94-1.09s1.09-1.07,1.28-1.28h0c0,1.06-1.94,2.51-2.76,2.83a3.31,3.31,0,0,1,.72-1.72,2.71,2.71,0,0,1,2-1.11m9.68-.06a.06.06,0,0,1-.05,0c-.1-.07-.45-.76-.67-1.06-.34-.5-.77-1-.8-1.08a2.64,2.64,0,0,1,.95.82,4.3,4.3,0,0,1,.6,1.19A2.12,2.12,0,0,0,15.75,40a3.12,3.12,0,0,0-1.61-1,5.3,5.3,0,0,0,1.4,2.32,2.86,2.86,0,0,0,.55.32v0m34.4-15.08c.33-.22.7-.47,1-.71,1-.84,1.16-1,1.41-1.46a3.14,3.14,0,0,0-1.39,1c-.32.29-.91.83-1.34,1.24A3.61,3.61,0,0,1,51.38,25a5.5,5.5,0,0,1,1.95-.94A5.1,5.1,0,0,1,52,25.94a4.67,4.67,0,0,1-1.47.63m.59-5.4c-.06.3-.26.8-.52,1.54s-.47,1.18-.53,1.44a4.73,4.73,0,0,1,1-3.37,1.36,1.36,0,0,1,.5-.3c-.11.6.11,1.27,0,2a4.49,4.49,0,0,1-1.33,1.82,4.67,4.67,0,0,0,.74-1.5,6,6,0,0,0,.17-1.67m-3,1.81c.06.3.16.78.29,1.55a4.34,4.34,0,0,0,.45,1.52h0a5.29,5.29,0,0,1-1-3.72,3.58,3.58,0,0,1,1.35,2.15,2.71,2.71,0,0,1-.23,1.29c0-.31-.16-.7-.22-1.17A5.84,5.84,0,0,0,48.07,23M45,32.45c.14.12.68.59,1,.92a9.58,9.58,0,0,0,1.17.74,1.18,1.18,0,0,1-.37,0,3.38,3.38,0,0,1-2.47-2.19c1,.07,2.82,1,2.93,2.13h0a12.55,12.55,0,0,0-1.14-1A6,6,0,0,0,45,32.45M42.15,18.63c.46-.18,1.31-.5,1.77-.7.63-.26,1.92-.44,2.33-.57a7.1,7.1,0,0,0-2.42.2,16.86,16.86,0,0,0-1.75,1.05h0c.28-2.12,3.53-1.51,4.88-1.4a4,4,0,0,1-1.1.63,11.67,11.67,0,0,0-1.12.43c-.46.1-.93.19-1.38.3l-1.2.07m.47-5.91c0,.23-.27,1.64-.31,2.21s-.12,1.49-.18,1.94l-.06,0a11.51,11.51,0,0,1-.45-2.33,17.57,17.57,0,0,1,1-2.69c1.43,2,.2,4-.32,4.76a6.45,6.45,0,0,0,.38-1.55c0-.46,0-2.12,0-2.37M41.16,14a9.7,9.7,0,0,1-.31-1.46,5.53,5.53,0,0,1,.33-1.18c.14.2,0,.93,0,1.26s0,.76.09,1.24a2.33,2.33,0,0,0-.07-3,2,2,0,0,0-.65,1.66A3.29,3.29,0,0,0,41.16,14h0M28.77,5c.45.35,1,.57,1.48.92s1.48,1.4,1.85,1.77a5.62,5.62,0,0,0-1.71-2.19,9.84,9.84,0,0,0-2.57-1.3,8.38,8.38,0,0,0,4.12,3.5h.16a18,18,0,0,1-2.05-1.59A8.2,8.2,0,0,1,28.77,5m-3.63.07a13.81,13.81,0,0,1,1.43.9c.37.3,1.34,1.07,1.7,1.42h0a6.72,6.72,0,0,0-3.81-2.86c.09.61.72,1.13,1.16,1.52a7.86,7.86,0,0,0,2.53,1.36l.08,0a15.57,15.57,0,0,1-1.86-1.28,16,16,0,0,1-1.25-1m-3.08.39a10.22,10.22,0,0,1,1,.77c.24.19.76.65,1.05.92a.74.74,0,0,0,0-.15,3.74,3.74,0,0,0-2.5-1.92,4.91,4.91,0,0,0,1.23,1.65,4.61,4.61,0,0,0,1.3.47h0a12.81,12.81,0,0,1-1.23-.88,11.35,11.35,0,0,1-.85-.85M20.5,7.57c-.56-.05-1.39-.21-1.86-.28s-1.8-.32-2.27-.44a19.74,19.74,0,0,1,2.34.22c.47.06,1.29.35,1.84.49a4.54,4.54,0,0,0-2.17-1,4.39,4.39,0,0,0-2.77.26,7.91,7.91,0,0,0,2.86,1,9.81,9.81,0,0,0,2-.17M12.71,9.52c0,.55-.1,1.17-.12,1.94s.17,1.68.19,2.22h0a7.1,7.1,0,0,0,0-4.77l-.25.21c-1,1.05-.65,3.68.24,4.57a8.45,8.45,0,0,1-.42-2.31,6.25,6.25,0,0,1,.38-1.86m-2.55,2.21c0,.31,0,.78,0,1.21s0,.88,0,1.19a3.61,3.61,0,0,0,.29-1.33c0-.76-.16-1.6-.21-1.45a2.57,2.57,0,0,0-.11,2.82h0A5.2,5.2,0,0,1,10,12.88a3.81,3.81,0,0,1,.2-1.15M7,15.58c.8-.19,1.62-.62,2.42-.82v0a3.45,3.45,0,0,0-2.51.77l-.24.23,0,0s0,0,0,0a5.08,5.08,0,0,0,1.5-.1,2.26,2.26,0,0,0,1.27-.92,7.94,7.94,0,0,1-1.33.64A4.5,4.5,0,0,1,7,15.58m1.39,1.24a4.89,4.89,0,0,1,1.13-.3A12.36,12.36,0,0,0,11,16.3a11.83,11.83,0,0,1-1.5.69,2.82,2.82,0,0,1-1.54-.08A3.73,3.73,0,0,1,9,16.06a3.07,3.07,0,0,1,2,.21c-.46,0-.92,0-1.39,0a2.53,2.53,0,0,0-1.25.53m3.7-2.92c0,.19.19.35.25.58a4.86,4.86,0,0,1,.17.71,1.7,1.7,0,0,0,0-1.15c-.14-.22-.31-.28-.45-.41a1.12,1.12,0,0,0,.25,1.4c.09.06.17.16.21.17a6.54,6.54,0,0,1-.28-.6,1.27,1.27,0,0,1-.11-.7m8.5-5.33c-.28.08-.75.28-1.09.38s-.88.06-1.2.3a10.77,10.77,0,0,0,1.23-.07,11.52,11.52,0,0,0,1.06-.6,1.63,1.63,0,0,1-1.77,1c-.55-.08-.7-.13-.9-.15a2.1,2.1,0,0,1,1.75-.95,2.15,2.15,0,0,1,.93.08v0m-4,2.78c.23-.11.63-.48.93-.63s.61-.29.81-.41a2.93,2.93,0,0,1-1.92,1.22c-.14-.82,1.2-1.62,1.93-1.36v0a5,5,0,0,0-.89.33,3.1,3.1,0,0,0-.87.83M25,7.8c.2.06.78.15,1.05.23l.64.14a2.34,2.34,0,0,1-2.08-.45,1.81,1.81,0,0,1,1.07-.19,1.7,1.7,0,0,1,1.12.6A4.17,4.17,0,0,0,26,7.86c-.23-.05-.76,0-1.07-.06m-1.06.63a6.29,6.29,0,0,1-1.22.28,1.41,1.41,0,0,1-.94-.48.93.93,0,0,0,1,.63,5.4,5.4,0,0,0,1.25-.41A1.77,1.77,0,0,1,22.17,9a1,1,0,0,1-.66-1.14c.22,0,.6.36,1,.48a8,8,0,0,0,1.36,0m9.72,20.42c.3-.28.27-.76.07-1.34-.7-2.06-3.36-4.87-3.81-5.52,2.81,1.16,4.7,4.92,5,6.64a.74.74,0,0,1-.2.58c-1.25.39-1.31.51-1.74.62a5,5,0,0,1-1.8,0c-.19-.1-.44-.28-.48-.5a3.69,3.69,0,0,0,1.05,0c.45,0,1.7-.1,1.9-.53m-.4-.48a.57.57,0,0,1-.53.18c-.47-.16-.86,0-1.2-.29a7.13,7.13,0,0,1-2.33-3.32c-.6-1.28-1.2-3.13-2.64-3.72-.24,0-.81-.09-.86-.36.31,0,.69-.08.69-.34s-.16-.24-.26-.35-.28-.27-.47-.24-.28.15-.43.29-.34.28-.34.54a1.33,1.33,0,0,0,.26.5c-1.08-.23-.51-1.47,0-1.67.2-.08.41-.37.62-.28a1.88,1.88,0,0,1,.62.47,2.47,2.47,0,0,0,.49.44c.55.36.47.15.85.56s1.2,1.36,1.82,2c1.15,1.56,3.24,4.13,3.47,4.7s.25.62.2.91M51.44,16l3.87-3,2.08,2.66-.7.54-1.47-1.89L54.3,15l1.27,1.62-.69.53-1.26-1.61-.9.7,1.48,1.89-.68.53Zm5.61,5.4-1.73.85-.43-.88,1.73-.84,2-2.66.46.94L57.8,20.48h2.12l.46.94Zm3.67,6.11a.63.63,0,0,0,.41-.29.62.62,0,0,0,.06-.54L61,25.76l-1.26.31.22.92a.7.7,0,0,0,.31.45.63.63,0,0,0,.49.06m.23.91a1.64,1.64,0,0,1-.55,0,1.67,1.67,0,0,1-.54-.15,1.37,1.37,0,0,1-.45-.35,1.18,1.18,0,0,1-.28-.53l-.28-1.14-1.8.45-.24-.94,4.77-1.19.51,2.08a1.11,1.11,0,0,1,0,.6,1.55,1.55,0,0,1-.24.52,1.62,1.62,0,0,1-.91.61m-2.63,5.35,1.06,0a.8.8,0,0,0,.27.42.88.88,0,0,0,.57.19l1.27,0a.86.86,0,0,0,.41-.08.84.84,0,0,0,.28-.2.92.92,0,0,0,.16-.29,1.2,1.2,0,0,0,.06-.32.93.93,0,0,0,0-.32.81.81,0,0,0-.42-.52,1.18,1.18,0,0,0-.41-.09l-1.27,0a.84.84,0,0,0-.57.17.89.89,0,0,0-.28.42l-1.06,0,0-1.67.86,0V32a1.52,1.52,0,0,1,.43-.28,1.2,1.2,0,0,1,.55-.09l1.51,0a1.42,1.42,0,0,1,.69.18,1.54,1.54,0,0,1,.5.45,1.85,1.85,0,0,1,.31.61,2.24,2.24,0,0,1,.1.68,2.27,2.27,0,0,1-.13.67,1.93,1.93,0,0,1-.32.6,1.63,1.63,0,0,1-.52.42,1.47,1.47,0,0,1-.7.16l-1.5,0a1.31,1.31,0,0,1-.55-.11,1.25,1.25,0,0,1-.42-.3v.5l-.86,0Zm-1.07,7.71,3.93.91.41-1.77-3.93-.91.22-.94,4.78,1.1-.85,3.68L57,42.44Zm-2.88,6.16,1.8,1,.88-1.58-1.8-1,.47-.85L60,47.58l-.47.85-1.72-1-.88,1.59,1.72.95-.48.87L53.89,48.5ZM.31,36.38c0-.18,0-.36-.07-.54s0-.44,0-.67q-.06-.95-.06-1.92v-.62c0-.05,0-.1,0-.16a32.8,32.8,0,1,1,.14,3.91"
       fill="#9e0b0f"
       fill-rule="evenodd"
       id="path7"
       style="fill:#000000" />
  </g>
</svg>
